<svg xmlns="http://www.w3.org/2000/svg" xmlns:xlink="http://www.w3.org/1999/xlink" xmlns:lucid="lucid" width="1247.91" height="309"><g transform="translate(-79 -2197.228407250514)" lucid:page-tab-id="0_0"><path d="M965.9 2218.23h360v264h-360z" stroke="#000" stroke-width="2" fill="#dfe3e8"/><path d="M965.9 2255.83h360m-360 102.3h360" stroke="#000" stroke-width="2" fill="none"/><use xlink:href="#a" transform="matrix(1,0,0,1,973.9071135255713,2226.228407250514) translate(153.05 14.6)"/><use xlink:href="#b" transform="matrix(1,0,0,1,977.9071135255713,2263.828407250514) translate(0 25.5)"/><use xlink:href="#c" transform="matrix(1,0,0,1,977.9071135255713,2263.828407250514) translate(10.95 25.5)"/><use xlink:href="#d" transform="matrix(1,0,0,1,977.9071135255713,2263.828407250514) translate(95.85000000000001 25.5)"/><use xlink:href="#e" transform="matrix(1,0,0,1,977.9071135255713,2263.828407250514) translate(105.85000000000001 25.5)"/><use xlink:href="#b" transform="matrix(1,0,0,1,977.9071135255713,2263.828407250514) translate(0 47.1)"/><use xlink:href="#f" transform="matrix(1,0,0,1,977.9071135255713,2263.828407250514) translate(10.95 47.1)"/><use xlink:href="#d" transform="matrix(1,0,0,1,977.9071135255713,2263.828407250514) translate(92.85000000000001 47.1)"/><use xlink:href="#e" transform="matrix(1,0,0,1,977.9071135255713,2263.828407250514) translate(102.85000000000001 47.1)"/><use xlink:href="#b" transform="matrix(1,0,0,1,977.9071135255713,2263.828407250514) translate(0 68.7)"/><use xlink:href="#g" transform="matrix(1,0,0,1,977.9071135255713,2263.828407250514) translate(10.95 68.7)"/><use xlink:href="#d" transform="matrix(1,0,0,1,977.9071135255713,2263.828407250514) translate(74.85000000000001 68.7)"/><use xlink:href="#h" transform="matrix(1,0,0,1,977.9071135255713,2263.828407250514) translate(84.85000000000001 68.7)"/><use xlink:href="#i" transform="matrix(1,0,0,1,977.9071135255713,2366.128407250514) translate(0 25.19999999999999)"/><use xlink:href="#j" transform="matrix(1,0,0,1,977.9071135255713,2366.128407250514) translate(15 25.19999999999999)"/><use xlink:href="#k" transform="matrix(1,0,0,1,977.9071135255713,2366.128407250514) translate(113.9 25.19999999999999)"/><use xlink:href="#l" transform="matrix(1,0,0,1,977.9071135255713,2366.128407250514) translate(173.85000000000002 25.19999999999999)"/><use xlink:href="#m" transform="matrix(1,0,0,1,977.9071135255713,2366.128407250514) translate(190.85000000000002 25.19999999999999)"/><use xlink:href="#n" transform="matrix(1,0,0,1,977.9071135255713,2366.128407250514) translate(0 46.79999999999999)"/><use xlink:href="#o" transform="matrix(1,0,0,1,977.9071135255713,2366.128407250514) translate(15.5 46.79999999999999)"/><use xlink:href="#d" transform="matrix(1,0,0,1,977.9071135255713,2366.128407250514) translate(97.35000000000001 46.79999999999999)"/><use xlink:href="#e" transform="matrix(1,0,0,1,977.9071135255713,2366.128407250514) translate(107.35000000000001 46.79999999999999)"/><use xlink:href="#b" transform="matrix(1,0,0,1,977.9071135255713,2366.128407250514) translate(0 68.39999999999999)"/><use xlink:href="#p" transform="matrix(1,0,0,1,977.9071135255713,2366.128407250514) translate(10.95 68.39999999999999)"/><use xlink:href="#d" transform="matrix(1,0,0,1,977.9071135255713,2366.128407250514) translate(245.59999999999994 68.39999999999999)"/><use xlink:href="#e" transform="matrix(1,0,0,1,977.9071135255713,2366.128407250514) translate(255.59999999999994 68.39999999999999)"/><use xlink:href="#q" transform="matrix(1,0,0,1,977.9071135255713,2366.128407250514) translate(0 90)"/><use xlink:href="#r" transform="matrix(1,0,0,1,977.9071135255713,2366.128407250514) translate(15 90)"/><use xlink:href="#d" transform="matrix(1,0,0,1,977.9071135255713,2366.128407250514) translate(143.75 90)"/><use xlink:href="#s" transform="matrix(1,0,0,1,977.9071135255713,2366.128407250514) translate(153.75 90)"/><path d="M80 2198.23h360v307H80z" stroke="#000" stroke-width="2" fill="#dfe3e8"/><path d="M80 2235.83h360m-360 167.1h360" stroke="#000" stroke-width="2" fill="none"/><g><use xlink:href="#t" transform="matrix(1,0,0,1,88,2206.228407250514) translate(140.05 14.6)"/></g><g><use xlink:href="#b" transform="matrix(1,0,0,1,92,2243.828407250514) translate(0 25.6)"/><use xlink:href="#u" transform="matrix(1,0,0,1,92,2243.828407250514) translate(10.95 25.6)"/><use xlink:href="#d" transform="matrix(1,0,0,1,92,2243.828407250514) translate(29.9 25.6)"/><use xlink:href="#v" transform="matrix(1,0,0,1,92,2243.828407250514) translate(39.9 25.6)"/><use xlink:href="#b" transform="matrix(1,0,0,1,92,2243.828407250514) translate(0 47.2)"/><use xlink:href="#w" transform="matrix(1,0,0,1,92,2243.828407250514) translate(10.95 47.2)"/><use xlink:href="#d" transform="matrix(1,0,0,1,92,2243.828407250514) translate(43.849999999999994 47.2)"/><use xlink:href="#e" transform="matrix(1,0,0,1,92,2243.828407250514) translate(53.849999999999994 47.2)"/><use xlink:href="#b" transform="matrix(1,0,0,1,92,2243.828407250514) translate(0 68.80000000000001)"/><use xlink:href="#x" transform="matrix(1,0,0,1,92,2243.828407250514) translate(10.95 68.80000000000001)"/><use xlink:href="#d" transform="matrix(1,0,0,1,92,2243.828407250514) translate(90.10000000000001 68.80000000000001)"/><use xlink:href="#y" transform="matrix(1,0,0,1,92,2243.828407250514) translate(100.10000000000001 68.80000000000001)"/><use xlink:href="#b" transform="matrix(1,0,0,1,92,2243.828407250514) translate(0 90.40000000000002)"/><use xlink:href="#z" transform="matrix(1,0,0,1,92,2243.828407250514) translate(10.95 90.40000000000002)"/><use xlink:href="#d" transform="matrix(1,0,0,1,92,2243.828407250514) translate(85.15000000000002 90.40000000000002)"/><use xlink:href="#y" transform="matrix(1,0,0,1,92,2243.828407250514) translate(95.15000000000002 90.40000000000002)"/><use xlink:href="#b" transform="matrix(1,0,0,1,92,2243.828407250514) translate(0 112.00000000000001)"/><use xlink:href="#A" transform="matrix(1,0,0,1,92,2243.828407250514) translate(10.95 112.00000000000001)"/><use xlink:href="#d" transform="matrix(1,0,0,1,92,2243.828407250514) translate(102.80000000000001 112.00000000000001)"/><use xlink:href="#e" transform="matrix(1,0,0,1,92,2243.828407250514) translate(112.80000000000001 112.00000000000001)"/><use xlink:href="#b" transform="matrix(1,0,0,1,92,2243.828407250514) translate(0 133.6)"/><use xlink:href="#B" transform="matrix(1,0,0,1,92,2243.828407250514) translate(10.95 133.6)"/><use xlink:href="#d" transform="matrix(1,0,0,1,92,2243.828407250514) translate(84.85000000000001 133.6)"/><use xlink:href="#C" transform="matrix(1,0,0,1,92,2243.828407250514) translate(94.85000000000001 133.6)"/></g><g><use xlink:href="#i" transform="matrix(1,0,0,1,92,2410.928407250514) translate(0 25.5)"/><use xlink:href="#j" transform="matrix(1,0,0,1,92,2410.928407250514) translate(15 25.5)"/><use xlink:href="#k" transform="matrix(1,0,0,1,92,2410.928407250514) translate(113.9 25.5)"/><use xlink:href="#l" transform="matrix(1,0,0,1,92,2410.928407250514) translate(173.85000000000002 25.5)"/><use xlink:href="#m" transform="matrix(1,0,0,1,92,2410.928407250514) translate(190.85000000000002 25.5)"/><use xlink:href="#n" transform="matrix(1,0,0,1,92,2410.928407250514) translate(0 47.1)"/><use xlink:href="#D" transform="matrix(1,0,0,1,92,2410.928407250514) translate(15.5 47.1)"/><use xlink:href="#d" transform="matrix(1,0,0,1,92,2410.928407250514) translate(126.30000000000001 47.1)"/><use xlink:href="#e" transform="matrix(1,0,0,1,92,2410.928407250514) translate(136.3 47.1)"/><use xlink:href="#b" transform="matrix(1,0,0,1,92,2410.928407250514) translate(0 68.7)"/><use xlink:href="#E" transform="matrix(1,0,0,1,92,2410.928407250514) translate(10.95 68.7)"/><use xlink:href="#d" transform="matrix(1,0,0,1,92,2410.928407250514) translate(139.25 68.7)"/><use xlink:href="#s" transform="matrix(1,0,0,1,92,2410.928407250514) translate(149.25 68.7)"/></g><path d="M525.9 2198.23h360v307h-360z" stroke="#000" stroke-width="2" fill="#dfe3e8"/><path d="M525.9 2235.83h360m-360 145.5h360" stroke="#000" stroke-width="2" fill="none"/><g><use xlink:href="#F" transform="matrix(1,0,0,1,533.9071135255714,2206.228407250514) translate(103.625 14.6)"/></g><g><use xlink:href="#b" transform="matrix(1,0,0,1,537.9071135255714,2243.828407250514) translate(0 25.39999999999999)"/><use xlink:href="#u" transform="matrix(1,0,0,1,537.9071135255714,2243.828407250514) translate(10.95 25.39999999999999)"/><use xlink:href="#d" transform="matrix(1,0,0,1,537.9071135255714,2243.828407250514) translate(29.9 25.39999999999999)"/><use xlink:href="#v" transform="matrix(1,0,0,1,537.9071135255714,2243.828407250514) translate(39.9 25.39999999999999)"/><use xlink:href="#b" transform="matrix(1,0,0,1,537.9071135255714,2243.828407250514) translate(0 46.99999999999999)"/><use xlink:href="#w" transform="matrix(1,0,0,1,537.9071135255714,2243.828407250514) translate(10.95 46.99999999999999)"/><use xlink:href="#d" transform="matrix(1,0,0,1,537.9071135255714,2243.828407250514) translate(43.849999999999994 46.99999999999999)"/><use xlink:href="#e" transform="matrix(1,0,0,1,537.9071135255714,2243.828407250514) translate(53.849999999999994 46.99999999999999)"/><use xlink:href="#b" transform="matrix(1,0,0,1,537.9071135255714,2243.828407250514) translate(0 68.6)"/><use xlink:href="#c" transform="matrix(1,0,0,1,537.9071135255714,2243.828407250514) translate(10.95 68.6)"/><use xlink:href="#d" transform="matrix(1,0,0,1,537.9071135255714,2243.828407250514) translate(95.85000000000001 68.6)"/><use xlink:href="#e" transform="matrix(1,0,0,1,537.9071135255714,2243.828407250514) translate(105.85000000000001 68.6)"/><use xlink:href="#b" transform="matrix(1,0,0,1,537.9071135255714,2243.828407250514) translate(0 90.20000000000002)"/><use xlink:href="#G" transform="matrix(1,0,0,1,537.9071135255714,2243.828407250514) translate(10.95 90.20000000000002)"/><use xlink:href="#d" transform="matrix(1,0,0,1,537.9071135255714,2243.828407250514) translate(88.85000000000001 90.20000000000002)"/><use xlink:href="#H" transform="matrix(1,0,0,1,537.9071135255714,2243.828407250514) translate(98.85000000000001 90.20000000000002)"/><use xlink:href="#I" transform="matrix(1,0,0,1,537.9071135255714,2243.828407250514) translate(0 111.80000000000001)"/></g><g><use xlink:href="#i" transform="matrix(1,0,0,1,537.9071135255714,2389.328407250514) translate(0 25.19999999999999)"/><use xlink:href="#j" transform="matrix(1,0,0,1,537.9071135255714,2389.328407250514) translate(15 25.19999999999999)"/><use xlink:href="#k" transform="matrix(1,0,0,1,537.9071135255714,2389.328407250514) translate(113.9 25.19999999999999)"/><use xlink:href="#l" transform="matrix(1,0,0,1,537.9071135255714,2389.328407250514) translate(173.85000000000002 25.19999999999999)"/><use xlink:href="#m" transform="matrix(1,0,0,1,537.9071135255714,2389.328407250514) translate(190.85000000000002 25.19999999999999)"/><use xlink:href="#n" transform="matrix(1,0,0,1,537.9071135255714,2389.328407250514) translate(0 46.79999999999999)"/><use xlink:href="#J" transform="matrix(1,0,0,1,537.9071135255714,2389.328407250514) translate(15.5 46.79999999999999)"/><use xlink:href="#d" transform="matrix(1,0,0,1,537.9071135255714,2389.328407250514) translate(199.14999999999998 46.79999999999999)"/><use xlink:href="#e" transform="matrix(1,0,0,1,537.9071135255714,2389.328407250514) translate(209.14999999999998 46.79999999999999)"/><use xlink:href="#n" transform="matrix(1,0,0,1,537.9071135255714,2389.328407250514) translate(0 68.39999999999999)"/><use xlink:href="#K" transform="matrix(1,0,0,1,537.9071135255714,2389.328407250514) translate(15.5 68.39999999999999)"/><use xlink:href="#d" transform="matrix(1,0,0,1,537.9071135255714,2389.328407250514) translate(190.2 68.39999999999999)"/><use xlink:href="#L" transform="matrix(1,0,0,1,537.9071135255714,2389.328407250514) translate(200.2 68.39999999999999)"/><use xlink:href="#n" transform="matrix(1,0,0,1,537.9071135255714,2389.328407250514) translate(0 90)"/><use xlink:href="#M" transform="matrix(1,0,0,1,537.9071135255714,2389.328407250514) translate(15.5 90)"/><use xlink:href="#d" transform="matrix(1,0,0,1,537.9071135255714,2389.328407250514) translate(220.09999999999997 90)"/><use xlink:href="#s" transform="matrix(1,0,0,1,537.9071135255714,2389.328407250514) translate(230.09999999999997 90)"/></g><path d="M523.1 2351.73H442.8M505.6 2341.73l17.3 10-17.3 10M460.32 2361.73l-17.32-10 17.32-10M887.9 2351.73h38v.13h37.2" stroke="#000" stroke-width="2" fill="none"/><path d="M887.93 2352.7h-1.02v-1.95h1.03z" stroke="#000" stroke-width=".05"/><path d="M945.6 2341.86l17.3 10-17.3 10" stroke="#000" stroke-width="2" fill="none"/><defs><path d="M232-93c-1 65-40 97-104 97C67 4 28-28 28-90v-158h33c8 89-33 224 67 224 102 0 64-133 71-224h33v155" id="N"/><path d="M135-143c-3-34-86-38-87 0 15 53 115 12 119 90S17 21 10-45l28-5c4 36 97 45 98 0-10-56-113-15-118-90-4-57 82-63 122-42 12 7 21 19 24 35" id="O"/><path d="M100-194c63 0 86 42 84 106H49c0 40 14 67 53 68 26 1 43-12 49-29l28 8c-11 28-37 45-77 45C44 4 14-33 15-96c1-61 26-98 85-98zm52 81c6-60-76-77-97-28-3 7-6 17-6 28h103" id="P"/><path d="M114-163C36-179 61-72 57 0H25l-1-190h30c1 12-1 29 2 39 6-27 23-49 58-41v29" id="Q"/><g id="a"><use transform="matrix(0.05,0,0,0.05,0,0)" xlink:href="#N"/><use transform="matrix(0.05,0,0,0.05,12.950000000000001,0)" xlink:href="#O"/><use transform="matrix(0.05,0,0,0.05,21.950000000000003,0)" xlink:href="#P"/><use transform="matrix(0.05,0,0,0.05,31.950000000000003,0)" xlink:href="#Q"/></g><path d="M16-82v-28h88v28H16" id="R"/><use transform="matrix(0.05,0,0,0.05,0,0)" xlink:href="#R" id="b"/><path d="M84 4C-5 8 30-112 23-190h32v120c0 31 7 50 39 49 72-2 45-101 50-169h31l1 190h-30c-1-10 1-25-2-33-11 22-28 36-60 37" id="S"/><path d="M117-194c89-4 53 116 60 194h-32v-121c0-31-8-49-39-48C34-167 62-67 57 0H25l-1-190h30c1 10-1 24 2 32 11-22 29-35 61-36" id="T"/><path d="M141-36C126-15 110 5 73 4 37 3 15-17 15-53c-1-64 63-63 125-63 3-35-9-54-41-54-24 1-41 7-42 31l-33-3c5-37 33-52 76-52 45 0 72 20 72 64v82c-1 20 7 32 28 27v20c-31 9-61-2-59-35zM48-53c0 20 12 33 32 33 41-3 63-29 60-74-43 2-92-5-92 41" id="U"/><path d="M210-169c-67 3-38 105-44 169h-31v-121c0-29-5-50-35-48C34-165 62-65 56 0H25l-1-190h30c1 10-1 24 2 32 10-44 99-50 107 0 11-21 27-35 58-36 85-2 47 119 55 194h-31v-121c0-29-5-49-35-48" id="V"/><g id="c"><use transform="matrix(0.05,0,0,0.05,0,0)" xlink:href="#S"/><use transform="matrix(0.05,0,0,0.05,10,0)" xlink:href="#O"/><use transform="matrix(0.05,0,0,0.05,19,0)" xlink:href="#P"/><use transform="matrix(0.05,0,0,0.05,29,0)" xlink:href="#Q"/><use transform="matrix(0.05,0,0,0.05,34.95,0)" xlink:href="#T"/><use transform="matrix(0.05,0,0,0.05,44.95,0)" xlink:href="#U"/><use transform="matrix(0.05,0,0,0.05,54.95,0)" xlink:href="#V"/><use transform="matrix(0.05,0,0,0.05,69.9,0)" xlink:href="#P"/></g><path d="M33-154v-36h34v36H33zM33 0v-36h34V0H33" id="W"/><use transform="matrix(0.05,0,0,0.05,0,0)" xlink:href="#W" id="d"/><path d="M185-189c-5-48-123-54-124 2 14 75 158 14 163 119 3 78-121 87-175 55-17-10-28-26-33-46l33-7c5 56 141 63 141-1 0-78-155-14-162-118-5-82 145-84 179-34 5 7 8 16 11 25" id="X"/><path d="M59-47c-2 24 18 29 38 22v24C64 9 27 4 27-40v-127H5v-23h24l9-43h21v43h35v23H59v120" id="Y"/><path d="M24-231v-30h32v30H24zM24 0v-190h32V0H24" id="Z"/><path d="M177-190C167-65 218 103 67 71c-23-6-38-20-44-43l32-5c15 47 100 32 89-28v-30C133-14 115 1 83 1 29 1 15-40 15-95c0-56 16-97 71-98 29-1 48 16 59 35 1-10 0-23 2-32h30zM94-22c36 0 50-32 50-73 0-42-14-75-50-75-39 0-46 34-46 75s6 73 46 73" id="aa"/><g id="e"><use transform="matrix(0.05,0,0,0.05,0,0)" xlink:href="#X"/><use transform="matrix(0.05,0,0,0.05,12,0)" xlink:href="#Y"/><use transform="matrix(0.05,0,0,0.05,17,0)" xlink:href="#Q"/><use transform="matrix(0.05,0,0,0.05,22.95,0)" xlink:href="#Z"/><use transform="matrix(0.05,0,0,0.05,26.899999999999995,0)" xlink:href="#T"/><use transform="matrix(0.05,0,0,0.05,36.9,0)" xlink:href="#aa"/></g><path d="M115-194c55 1 70 41 70 98S169 2 115 4C84 4 66-9 55-30l1 105H24l-1-265h31l2 30c10-21 28-34 59-34zm-8 174c40 0 45-34 45-75s-6-73-45-74c-42 0-51 32-51 76 0 43 10 73 51 73" id="ab"/><path d="M206 0h-36l-40-164L89 0H53L-1-190h32L70-26l43-164h34l41 164 42-164h31" id="ac"/><path d="M100-194c62-1 85 37 85 99 1 63-27 99-86 99S16-35 15-95c0-66 28-99 85-99zM99-20c44 1 53-31 53-75 0-43-8-75-51-75s-53 32-53 75 10 74 51 75" id="ad"/><path d="M85-194c31 0 48 13 60 33l-1-100h32l1 261h-30c-2-10 0-23-3-31C134-8 116 4 85 4 32 4 16-35 15-94c0-66 23-100 70-100zm9 24c-40 0-46 34-46 75 0 40 6 74 45 74 42 0 51-32 51-76 0-42-9-74-50-73" id="ae"/><g id="f"><use transform="matrix(0.05,0,0,0.05,0,0)" xlink:href="#ab"/><use transform="matrix(0.05,0,0,0.05,10,0)" xlink:href="#U"/><use transform="matrix(0.05,0,0,0.05,20,0)" xlink:href="#O"/><use transform="matrix(0.05,0,0,0.05,29,0)" xlink:href="#O"/><use transform="matrix(0.05,0,0,0.05,38,0)" xlink:href="#ac"/><use transform="matrix(0.05,0,0,0.05,50.95,0)" xlink:href="#ad"/><use transform="matrix(0.05,0,0,0.05,60.95,0)" xlink:href="#Q"/><use transform="matrix(0.05,0,0,0.05,66.9,0)" xlink:href="#ae"/></g><path d="M141 0L90-78 38 0H4l68-98-65-92h35l48 74 47-74h35l-64 92 68 98h-35" id="af"/><g id="g"><use transform="matrix(0.05,0,0,0.05,0,0)" xlink:href="#P"/><use transform="matrix(0.05,0,0,0.05,10,0)" xlink:href="#af"/><use transform="matrix(0.05,0,0,0.05,19,0)" xlink:href="#ab"/><use transform="matrix(0.05,0,0,0.05,29,0)" xlink:href="#Z"/><use transform="matrix(0.05,0,0,0.05,32.95,0)" xlink:href="#Q"/><use transform="matrix(0.05,0,0,0.05,38.900000000000006,0)" xlink:href="#P"/><use transform="matrix(0.05,0,0,0.05,48.900000000000006,0)" xlink:href="#ae"/></g><path d="M115-194c53 0 69 39 70 98 0 66-23 100-70 100C84 3 66-7 56-30L54 0H23l1-261h32v101c10-23 28-34 59-34zm-8 174c40 0 45-34 45-75 0-40-5-75-45-74-42 0-51 32-51 76 0 43 10 73 51 73" id="ag"/><path d="M24 0v-261h32V0H24" id="ah"/><g id="h"><use transform="matrix(0.05,0,0,0.05,0,0)" xlink:href="#ag"/><use transform="matrix(0.05,0,0,0.05,10,0)" xlink:href="#ad"/><use transform="matrix(0.05,0,0,0.05,20,0)" xlink:href="#ad"/><use transform="matrix(0.05,0,0,0.05,30,0)" xlink:href="#ah"/><use transform="matrix(0.05,0,0,0.05,33.95,0)" xlink:href="#P"/><use transform="matrix(0.05,0,0,0.05,43.95,0)" xlink:href="#U"/><use transform="matrix(0.05,0,0,0.05,53.95,0)" xlink:href="#T"/></g><path d="M0 4l72-265h28L28 4H0" id="ai"/><g id="i"><use transform="matrix(0.05,0,0,0.05,0,0)" xlink:href="#ai"/><use transform="matrix(0.05,0,0,0.05,5,0)" xlink:href="#ai"/></g><path d="M96-169c-40 0-48 33-48 73s9 75 48 75c24 0 41-14 43-38l32 2c-6 37-31 61-74 61-59 0-76-41-82-99-10-93 101-131 147-64 4 7 5 14 7 22l-32 3c-4-21-16-35-41-35" id="aj"/><path d="M68-38c1 34 0 65-14 84H32c9-13 17-26 17-46H33v-38h35" id="ak"/><g id="j"><use transform="matrix(0.05,0,0,0.05,0,0)" xlink:href="#aj"/><use transform="matrix(0.05,0,0,0.05,9,0)" xlink:href="#ad"/><use transform="matrix(0.05,0,0,0.05,19,0)" xlink:href="#T"/><use transform="matrix(0.05,0,0,0.05,29,0)" xlink:href="#Y"/><use transform="matrix(0.05,0,0,0.05,34,0)" xlink:href="#Q"/><use transform="matrix(0.05,0,0,0.05,39.95,0)" xlink:href="#S"/><use transform="matrix(0.05,0,0,0.05,49.95,0)" xlink:href="#aj"/><use transform="matrix(0.05,0,0,0.05,58.95,0)" xlink:href="#Y"/><use transform="matrix(0.05,0,0,0.05,63.95,0)" xlink:href="#ad"/><use transform="matrix(0.05,0,0,0.05,73.95,0)" xlink:href="#Q"/><use transform="matrix(0.05,0,0,0.05,79.9,0)" xlink:href="#O"/><use transform="matrix(0.05,0,0,0.05,88.9,0)" xlink:href="#ak"/></g><g id="k"><use transform="matrix(0.05,0,0,0.05,0,0)" xlink:href="#aa"/><use transform="matrix(0.05,0,0,0.05,10,0)" xlink:href="#P"/><use transform="matrix(0.05,0,0,0.05,20,0)" xlink:href="#Y"/><use transform="matrix(0.05,0,0,0.05,25,0)" xlink:href="#Y"/><use transform="matrix(0.05,0,0,0.05,30,0)" xlink:href="#P"/><use transform="matrix(0.05,0,0,0.05,40,0)" xlink:href="#Q"/><use transform="matrix(0.05,0,0,0.05,45.95,0)" xlink:href="#O"/></g><path d="M234-2c-28 10-62 0-77-18C117 19 8 12 13-65c3-43 29-61 60-76-25-40-17-114 47-108 35 3 59 15 59 50 0 44-40 53-71 69 14 26 32 50 51 72 14-21 24-43 30-72l26 8c-9 33-21 57-38 82 13 13 33 22 57 15v23zM97-151c25-10 52-18 56-48-1-18-13-29-33-29-42 0-39 50-23 77zM42-66c-3 51 71 58 98 28-20-24-41-51-56-80-23 10-40 24-42 52" id="al"/><use transform="matrix(0.05,0,0,0.05,0,0)" xlink:href="#al" id="l"/><g id="m"><use transform="matrix(0.05,0,0,0.05,0,0)" xlink:href="#O"/><use transform="matrix(0.05,0,0,0.05,9,0)" xlink:href="#P"/><use transform="matrix(0.05,0,0,0.05,19,0)" xlink:href="#Y"/><use transform="matrix(0.05,0,0,0.05,24,0)" xlink:href="#Y"/><use transform="matrix(0.05,0,0,0.05,29,0)" xlink:href="#P"/><use transform="matrix(0.05,0,0,0.05,39,0)" xlink:href="#Q"/><use transform="matrix(0.05,0,0,0.05,44.95,0)" xlink:href="#O"/></g><path d="M118-107v75H92v-75H18v-26h74v-75h26v75h74v26h-74" id="am"/><use transform="matrix(0.05,0,0,0.05,0,0)" xlink:href="#am" id="n"/><path d="M33 0v-248h34V0H33" id="an"/><path d="M101-234c-31-9-42 10-38 44h38v23H63V0H32v-167H5v-23h27c-7-52 17-82 69-68v24" id="ao"/><path d="M87 75C49 33 22-17 22-94c0-76 28-126 65-167h31c-38 41-64 92-64 168S80 34 118 75H87" id="ap"/><path d="M33-261c38 41 65 92 65 168S71 34 33 75H2C39 34 66-17 66-93S39-220 2-261h31" id="aq"/><g id="o"><use transform="matrix(0.05,0,0,0.05,0,0)" xlink:href="#S"/><use transform="matrix(0.05,0,0,0.05,10,0)" xlink:href="#O"/><use transform="matrix(0.05,0,0,0.05,19,0)" xlink:href="#P"/><use transform="matrix(0.05,0,0,0.05,29,0)" xlink:href="#Q"/><use transform="matrix(0.05,0,0,0.05,34.95,0)" xlink:href="#an"/><use transform="matrix(0.05,0,0,0.05,39.95,0)" xlink:href="#T"/><use transform="matrix(0.05,0,0,0.05,49.95,0)" xlink:href="#ao"/><use transform="matrix(0.05,0,0,0.05,54.95,0)" xlink:href="#ad"/><use transform="matrix(0.05,0,0,0.05,64.95,0)" xlink:href="#ap"/><use transform="matrix(0.05,0,0,0.05,70.9,0)" xlink:href="#aq"/></g><path d="M233-177c-1 41-23 64-60 70L243 0h-38l-65-103H63V0H30v-248c88 3 205-21 203 71zM63-129c60-2 137 13 137-47 0-61-80-42-137-45v92" id="ar"/><path d="M30-248c87 1 191-15 191 75 0 78-77 80-158 76V0H30v-248zm33 125c57 0 124 11 124-50 0-59-68-47-124-48v98" id="as"/><g id="p"><use transform="matrix(0.05,0,0,0.05,0,0)" xlink:href="#aa"/><use transform="matrix(0.05,0,0,0.05,10,0)" xlink:href="#P"/><use transform="matrix(0.05,0,0,0.05,20,0)" xlink:href="#T"/><use transform="matrix(0.05,0,0,0.05,30,0)" xlink:href="#P"/><use transform="matrix(0.05,0,0,0.05,40,0)" xlink:href="#Q"/><use transform="matrix(0.05,0,0,0.05,45.95,0)" xlink:href="#U"/><use transform="matrix(0.05,0,0,0.05,55.95,0)" xlink:href="#Y"/><use transform="matrix(0.05,0,0,0.05,60.95,0)" xlink:href="#P"/><use transform="matrix(0.05,0,0,0.05,70.95,0)" xlink:href="#ar"/><use transform="matrix(0.05,0,0,0.05,83.9,0)" xlink:href="#U"/><use transform="matrix(0.05,0,0,0.05,93.9,0)" xlink:href="#T"/><use transform="matrix(0.05,0,0,0.05,103.9,0)" xlink:href="#ae"/><use transform="matrix(0.05,0,0,0.05,113.9,0)" xlink:href="#ad"/><use transform="matrix(0.05,0,0,0.05,123.9,0)" xlink:href="#V"/><use transform="matrix(0.05,0,0,0.05,138.85,0)" xlink:href="#as"/><use transform="matrix(0.05,0,0,0.05,150.85,0)" xlink:href="#U"/><use transform="matrix(0.05,0,0,0.05,160.85,0)" xlink:href="#O"/><use transform="matrix(0.05,0,0,0.05,169.85,0)" xlink:href="#O"/><use transform="matrix(0.05,0,0,0.05,178.85,0)" xlink:href="#ac"/><use transform="matrix(0.05,0,0,0.05,191.79999999999998,0)" xlink:href="#ad"/><use transform="matrix(0.05,0,0,0.05,201.79999999999998,0)" xlink:href="#Q"/><use transform="matrix(0.05,0,0,0.05,207.74999999999997,0)" xlink:href="#ae"/><use transform="matrix(0.05,0,0,0.05,217.74999999999997,0)" xlink:href="#ap"/><use transform="matrix(0.05,0,0,0.05,223.69999999999996,0)" xlink:href="#aq"/></g><path d="M158-156l-14 65h45v19h-49L124 0h-19l15-72H56L41 0H22l15-72H2v-19h39l14-65H11v-19h48l15-71h20l-16 71h64l16-71h19l-16 71h37v19h-40zm-83 0L61-91h63l14-65H75" id="at"/><use transform="matrix(0.05,0,0,0.05,0,0)" xlink:href="#at" id="q"/><g id="r"><use transform="matrix(0.05,0,0,0.05,0,0)" xlink:href="#T"/><use transform="matrix(0.05,0,0,0.05,10,0)" xlink:href="#P"/><use transform="matrix(0.05,0,0,0.05,20,0)" xlink:href="#ac"/><use transform="matrix(0.05,0,0,0.05,32.95,0)" xlink:href="#as"/><use transform="matrix(0.05,0,0,0.05,44.95,0)" xlink:href="#U"/><use transform="matrix(0.05,0,0,0.05,54.95,0)" xlink:href="#O"/><use transform="matrix(0.05,0,0,0.05,63.95,0)" xlink:href="#O"/><use transform="matrix(0.05,0,0,0.05,72.95,0)" xlink:href="#ac"/><use transform="matrix(0.05,0,0,0.05,85.9,0)" xlink:href="#ad"/><use transform="matrix(0.05,0,0,0.05,95.9,0)" xlink:href="#Q"/><use transform="matrix(0.05,0,0,0.05,101.85000000000001,0)" xlink:href="#ae"/><use transform="matrix(0.05,0,0,0.05,111.85000000000001,0)" xlink:href="#ap"/><use transform="matrix(0.05,0,0,0.05,117.80000000000001,0)" xlink:href="#aq"/></g><path d="M108 0H70L1-190h34L89-25l56-165h34" id="au"/><g id="s"><use transform="matrix(0.05,0,0,0.05,0,0)" xlink:href="#au"/><use transform="matrix(0.05,0,0,0.05,9,0)" xlink:href="#ad"/><use transform="matrix(0.05,0,0,0.05,19,0)" xlink:href="#Z"/><use transform="matrix(0.05,0,0,0.05,22.95,0)" xlink:href="#ae"/></g><path d="M240 0l2-218c-23 76-54 145-80 218h-23L58-218 59 0H30v-248h44l77 211c21-75 51-140 76-211h43V0h-30" id="av"/><g id="t"><use transform="matrix(0.05,0,0,0.05,0,0)" xlink:href="#av"/><use transform="matrix(0.05,0,0,0.05,14.950000000000001,0)" xlink:href="#P"/><use transform="matrix(0.05,0,0,0.05,24.950000000000003,0)" xlink:href="#P"/><use transform="matrix(0.05,0,0,0.05,34.95,0)" xlink:href="#Y"/><use transform="matrix(0.05,0,0,0.05,39.95,0)" xlink:href="#Z"/><use transform="matrix(0.05,0,0,0.05,43.900000000000006,0)" xlink:href="#T"/><use transform="matrix(0.05,0,0,0.05,53.900000000000006,0)" xlink:href="#aa"/></g><g id="u"><use transform="matrix(0.05,0,0,0.05,0,0)" xlink:href="#Z"/><use transform="matrix(0.05,0,0,0.05,3.95,0)" xlink:href="#ae"/></g><g id="v"><use transform="matrix(0.05,0,0,0.05,0,0)" xlink:href="#Z"/><use transform="matrix(0.05,0,0,0.05,3.95,0)" xlink:href="#T"/><use transform="matrix(0.05,0,0,0.05,13.949999999999998,0)" xlink:href="#Y"/></g><g id="w"><use transform="matrix(0.05,0,0,0.05,0,0)" xlink:href="#Y"/><use transform="matrix(0.05,0,0,0.05,5,0)" xlink:href="#Z"/><use transform="matrix(0.05,0,0,0.05,8.95,0)" xlink:href="#Y"/><use transform="matrix(0.05,0,0,0.05,13.949999999999998,0)" xlink:href="#ah"/><use transform="matrix(0.05,0,0,0.05,17.9,0)" xlink:href="#P"/></g><path d="M127-220V0H93v-220H8v-28h204v28h-85" id="aw"/><g id="x"><use transform="matrix(0.05,0,0,0.05,0,0)" xlink:href="#O"/><use transform="matrix(0.05,0,0,0.05,9,0)" xlink:href="#Y"/><use transform="matrix(0.05,0,0,0.05,14,0)" xlink:href="#U"/><use transform="matrix(0.05,0,0,0.05,24,0)" xlink:href="#Q"/><use transform="matrix(0.05,0,0,0.05,29.950000000000003,0)" xlink:href="#Y"/><use transform="matrix(0.05,0,0,0.05,34.95,0)" xlink:href="#aw"/><use transform="matrix(0.05,0,0,0.05,45.25000000000001,0)" xlink:href="#Z"/><use transform="matrix(0.05,0,0,0.05,49.20000000000001,0)" xlink:href="#V"/><use transform="matrix(0.05,0,0,0.05,64.15,0)" xlink:href="#P"/></g><path d="M30 0v-248h33v221h125V0H30" id="ax"/><path d="M30-248c118-7 216 8 213 122C240-48 200 0 122 0H30v-248zM63-27c89 8 146-16 146-99s-60-101-146-95v194" id="ay"/><g id="y"><use transform="matrix(0.05,0,0,0.05,0,0)" xlink:href="#ax"/><use transform="matrix(0.05,0,0,0.05,10,0)" xlink:href="#ad"/><use transform="matrix(0.05,0,0,0.05,20,0)" xlink:href="#aj"/><use transform="matrix(0.05,0,0,0.05,29,0)" xlink:href="#U"/><use transform="matrix(0.05,0,0,0.05,39,0)" xlink:href="#ah"/><use transform="matrix(0.05,0,0,0.05,42.95,0)" xlink:href="#ay"/><use transform="matrix(0.05,0,0,0.05,55.900000000000006,0)" xlink:href="#U"/><use transform="matrix(0.05,0,0,0.05,65.9,0)" xlink:href="#Y"/><use transform="matrix(0.05,0,0,0.05,70.9,0)" xlink:href="#P"/><use transform="matrix(0.05,0,0,0.05,80.9,0)" xlink:href="#aw"/><use transform="matrix(0.05,0,0,0.05,91.2,0)" xlink:href="#Z"/><use transform="matrix(0.05,0,0,0.05,95.15,0)" xlink:href="#V"/><use transform="matrix(0.05,0,0,0.05,110.10000000000001,0)" xlink:href="#P"/></g><g id="z"><use transform="matrix(0.05,0,0,0.05,0,0)" xlink:href="#P"/><use transform="matrix(0.05,0,0,0.05,10,0)" xlink:href="#T"/><use transform="matrix(0.05,0,0,0.05,20,0)" xlink:href="#ae"/><use transform="matrix(0.05,0,0,0.05,30,0)" xlink:href="#aw"/><use transform="matrix(0.05,0,0,0.05,40.300000000000004,0)" xlink:href="#Z"/><use transform="matrix(0.05,0,0,0.05,44.25000000000001,0)" xlink:href="#V"/><use transform="matrix(0.05,0,0,0.05,59.20000000000002,0)" xlink:href="#P"/></g><g id="A"><use transform="matrix(0.05,0,0,0.05,0,0)" xlink:href="#ae"/><use transform="matrix(0.05,0,0,0.05,10,0)" xlink:href="#P"/><use transform="matrix(0.05,0,0,0.05,20,0)" xlink:href="#O"/><use transform="matrix(0.05,0,0,0.05,29,0)" xlink:href="#aj"/><use transform="matrix(0.05,0,0,0.05,38,0)" xlink:href="#Q"/><use transform="matrix(0.05,0,0,0.05,43.95,0)" xlink:href="#Z"/><use transform="matrix(0.05,0,0,0.05,47.900000000000006,0)" xlink:href="#ab"/><use transform="matrix(0.05,0,0,0.05,57.900000000000006,0)" xlink:href="#Y"/><use transform="matrix(0.05,0,0,0.05,62.900000000000006,0)" xlink:href="#Z"/><use transform="matrix(0.05,0,0,0.05,66.85000000000001,0)" xlink:href="#ad"/><use transform="matrix(0.05,0,0,0.05,76.85000000000001,0)" xlink:href="#T"/></g><g id="B"><use transform="matrix(0.05,0,0,0.05,0,0)" xlink:href="#aj"/><use transform="matrix(0.05,0,0,0.05,9,0)" xlink:href="#U"/><use transform="matrix(0.05,0,0,0.05,19,0)" xlink:href="#ah"/><use transform="matrix(0.05,0,0,0.05,22.95,0)" xlink:href="#P"/><use transform="matrix(0.05,0,0,0.05,32.95,0)" xlink:href="#T"/><use transform="matrix(0.05,0,0,0.05,42.95,0)" xlink:href="#ae"/><use transform="matrix(0.05,0,0,0.05,52.95,0)" xlink:href="#P"/><use transform="matrix(0.05,0,0,0.05,62.95,0)" xlink:href="#Q"/></g><path d="M212-179c-10-28-35-45-73-45-59 0-87 40-87 99 0 60 29 101 89 101 43 0 62-24 78-52l27 14C228-24 195 4 139 4 59 4 22-46 18-125c-6-104 99-153 187-111 19 9 31 26 39 46" id="az"/><g id="C"><use transform="matrix(0.05,0,0,0.05,0,0)" xlink:href="#av"/><use transform="matrix(0.05,0,0,0.05,14.950000000000001,0)" xlink:href="#P"/><use transform="matrix(0.05,0,0,0.05,24.950000000000003,0)" xlink:href="#P"/><use transform="matrix(0.05,0,0,0.05,34.95,0)" xlink:href="#Y"/><use transform="matrix(0.05,0,0,0.05,39.95,0)" xlink:href="#Z"/><use transform="matrix(0.05,0,0,0.05,43.900000000000006,0)" xlink:href="#T"/><use transform="matrix(0.05,0,0,0.05,53.900000000000006,0)" xlink:href="#aa"/><use transform="matrix(0.05,0,0,0.05,63.900000000000006,0)" xlink:href="#az"/><use transform="matrix(0.05,0,0,0.05,76.85000000000001,0)" xlink:href="#U"/><use transform="matrix(0.05,0,0,0.05,86.85000000000001,0)" xlink:href="#ah"/><use transform="matrix(0.05,0,0,0.05,90.80000000000001,0)" xlink:href="#P"/><use transform="matrix(0.05,0,0,0.05,100.80000000000001,0)" xlink:href="#T"/><use transform="matrix(0.05,0,0,0.05,110.80000000000001,0)" xlink:href="#ae"/><use transform="matrix(0.05,0,0,0.05,120.80000000000001,0)" xlink:href="#P"/><use transform="matrix(0.05,0,0,0.05,130.8,0)" xlink:href="#Q"/></g><g id="D"><use transform="matrix(0.05,0,0,0.05,0,0)" xlink:href="#V"/><use transform="matrix(0.05,0,0,0.05,14.950000000000001,0)" xlink:href="#P"/><use transform="matrix(0.05,0,0,0.05,24.950000000000003,0)" xlink:href="#P"/><use transform="matrix(0.05,0,0,0.05,34.95,0)" xlink:href="#Y"/><use transform="matrix(0.05,0,0,0.05,39.95,0)" xlink:href="#Z"/><use transform="matrix(0.05,0,0,0.05,43.900000000000006,0)" xlink:href="#T"/><use transform="matrix(0.05,0,0,0.05,53.900000000000006,0)" xlink:href="#aa"/><use transform="matrix(0.05,0,0,0.05,63.900000000000006,0)" xlink:href="#an"/><use transform="matrix(0.05,0,0,0.05,68.9,0)" xlink:href="#T"/><use transform="matrix(0.05,0,0,0.05,78.9,0)" xlink:href="#ao"/><use transform="matrix(0.05,0,0,0.05,83.9,0)" xlink:href="#ad"/><use transform="matrix(0.05,0,0,0.05,93.9,0)" xlink:href="#ap"/><use transform="matrix(0.05,0,0,0.05,99.85000000000001,0)" xlink:href="#aq"/></g><path d="M137 0h-34L2-248h35l83 218 83-218h36" id="aA"/><g id="E"><use transform="matrix(0.05,0,0,0.05,0,0)" xlink:href="#Y"/><use transform="matrix(0.05,0,0,0.05,5,0)" xlink:href="#Z"/><use transform="matrix(0.05,0,0,0.05,8.95,0)" xlink:href="#V"/><use transform="matrix(0.05,0,0,0.05,23.9,0)" xlink:href="#P"/><use transform="matrix(0.05,0,0,0.05,33.9,0)" xlink:href="#aA"/><use transform="matrix(0.05,0,0,0.05,44.55,0)" xlink:href="#U"/><use transform="matrix(0.05,0,0,0.05,54.54999999999999,0)" xlink:href="#ah"/><use transform="matrix(0.05,0,0,0.05,58.5,0)" xlink:href="#Z"/><use transform="matrix(0.05,0,0,0.05,62.45,0)" xlink:href="#ae"/><use transform="matrix(0.05,0,0,0.05,72.45,0)" xlink:href="#U"/><use transform="matrix(0.05,0,0,0.05,82.45,0)" xlink:href="#Y"/><use transform="matrix(0.05,0,0,0.05,87.45,0)" xlink:href="#Z"/><use transform="matrix(0.05,0,0,0.05,91.4,0)" xlink:href="#ad"/><use transform="matrix(0.05,0,0,0.05,101.4,0)" xlink:href="#T"/><use transform="matrix(0.05,0,0,0.05,111.4,0)" xlink:href="#ap"/><use transform="matrix(0.05,0,0,0.05,117.35000000000001,0)" xlink:href="#aq"/></g><g id="F"><use transform="matrix(0.05,0,0,0.05,0,0)" xlink:href="#av"/><use transform="matrix(0.05,0,0,0.05,14.950000000000001,0)" xlink:href="#P"/><use transform="matrix(0.05,0,0,0.05,24.950000000000003,0)" xlink:href="#P"/><use transform="matrix(0.05,0,0,0.05,34.95,0)" xlink:href="#Y"/><use transform="matrix(0.05,0,0,0.05,39.95,0)" xlink:href="#Z"/><use transform="matrix(0.05,0,0,0.05,43.900000000000006,0)" xlink:href="#T"/><use transform="matrix(0.05,0,0,0.05,53.900000000000006,0)" xlink:href="#aa"/><use transform="matrix(0.05,0,0,0.05,63.900000000000006,0)" xlink:href="#az"/><use transform="matrix(0.05,0,0,0.05,76.85000000000001,0)" xlink:href="#U"/><use transform="matrix(0.05,0,0,0.05,86.85000000000001,0)" xlink:href="#ah"/><use transform="matrix(0.05,0,0,0.05,90.80000000000001,0)" xlink:href="#P"/><use transform="matrix(0.05,0,0,0.05,100.80000000000001,0)" xlink:href="#T"/><use transform="matrix(0.05,0,0,0.05,110.80000000000001,0)" xlink:href="#ae"/><use transform="matrix(0.05,0,0,0.05,120.80000000000001,0)" xlink:href="#P"/><use transform="matrix(0.05,0,0,0.05,130.8,0)" xlink:href="#Q"/></g><g id="G"><use transform="matrix(0.05,0,0,0.05,0,0)" xlink:href="#V"/><use transform="matrix(0.05,0,0,0.05,14.950000000000001,0)" xlink:href="#P"/><use transform="matrix(0.05,0,0,0.05,24.950000000000003,0)" xlink:href="#P"/><use transform="matrix(0.05,0,0,0.05,34.95,0)" xlink:href="#Y"/><use transform="matrix(0.05,0,0,0.05,39.95,0)" xlink:href="#Z"/><use transform="matrix(0.05,0,0,0.05,43.900000000000006,0)" xlink:href="#T"/><use transform="matrix(0.05,0,0,0.05,53.900000000000006,0)" xlink:href="#aa"/><use transform="matrix(0.05,0,0,0.05,63.900000000000006,0)" xlink:href="#O"/></g><path d="M18-100v-36l175-74v27L42-118l151 64v27" id="aB"/><path d="M18-27v-27l151-64-151-65v-27l175 74v36" id="aC"/><g id="H"><use transform="matrix(0.05,0,0,0.05,0,0)" xlink:href="#ax"/><use transform="matrix(0.05,0,0,0.05,10,0)" xlink:href="#Z"/><use transform="matrix(0.05,0,0,0.05,13.949999999999998,0)" xlink:href="#O"/><use transform="matrix(0.05,0,0,0.05,22.95,0)" xlink:href="#Y"/><use transform="matrix(0.05,0,0,0.05,27.950000000000003,0)" xlink:href="#aB"/><use transform="matrix(0.05,0,0,0.05,38.45,0)" xlink:href="#av"/><use transform="matrix(0.05,0,0,0.05,53.400000000000006,0)" xlink:href="#P"/><use transform="matrix(0.05,0,0,0.05,63.400000000000006,0)" xlink:href="#P"/><use transform="matrix(0.05,0,0,0.05,73.4,0)" xlink:href="#Y"/><use transform="matrix(0.05,0,0,0.05,78.4,0)" xlink:href="#Z"/><use transform="matrix(0.05,0,0,0.05,82.35000000000001,0)" xlink:href="#T"/><use transform="matrix(0.05,0,0,0.05,92.35000000000001,0)" xlink:href="#aa"/><use transform="matrix(0.05,0,0,0.05,102.35000000000001,0)" xlink:href="#aC"/></g><g id="J"><use transform="matrix(0.05,0,0,0.05,0,0)" xlink:href="#V"/><use transform="matrix(0.05,0,0,0.05,14.950000000000001,0)" xlink:href="#P"/><use transform="matrix(0.05,0,0,0.05,24.950000000000003,0)" xlink:href="#P"/><use transform="matrix(0.05,0,0,0.05,34.95,0)" xlink:href="#Y"/><use transform="matrix(0.05,0,0,0.05,39.95,0)" xlink:href="#Z"/><use transform="matrix(0.05,0,0,0.05,43.900000000000006,0)" xlink:href="#T"/><use transform="matrix(0.05,0,0,0.05,53.900000000000006,0)" xlink:href="#aa"/><use transform="matrix(0.05,0,0,0.05,63.900000000000006,0)" xlink:href="#az"/><use transform="matrix(0.05,0,0,0.05,76.85000000000001,0)" xlink:href="#U"/><use transform="matrix(0.05,0,0,0.05,86.85000000000001,0)" xlink:href="#ah"/><use transform="matrix(0.05,0,0,0.05,90.80000000000001,0)" xlink:href="#P"/><use transform="matrix(0.05,0,0,0.05,100.80000000000001,0)" xlink:href="#T"/><use transform="matrix(0.05,0,0,0.05,110.80000000000001,0)" xlink:href="#ae"/><use transform="matrix(0.05,0,0,0.05,120.80000000000001,0)" xlink:href="#P"/><use transform="matrix(0.05,0,0,0.05,130.8,0)" xlink:href="#Q"/><use transform="matrix(0.05,0,0,0.05,136.75,0)" xlink:href="#an"/><use transform="matrix(0.05,0,0,0.05,141.75,0)" xlink:href="#T"/><use transform="matrix(0.05,0,0,0.05,151.75,0)" xlink:href="#ao"/><use transform="matrix(0.05,0,0,0.05,156.75,0)" xlink:href="#ad"/><use transform="matrix(0.05,0,0,0.05,166.75,0)" xlink:href="#ap"/><use transform="matrix(0.05,0,0,0.05,172.7,0)" xlink:href="#aq"/></g><g id="K"><use transform="matrix(0.05,0,0,0.05,0,0)" xlink:href="#U"/><use transform="matrix(0.05,0,0,0.05,10,0)" xlink:href="#ae"/><use transform="matrix(0.05,0,0,0.05,20,0)" xlink:href="#ae"/><use transform="matrix(0.05,0,0,0.05,30,0)" xlink:href="#av"/><use transform="matrix(0.05,0,0,0.05,44.95,0)" xlink:href="#P"/><use transform="matrix(0.05,0,0,0.05,54.95,0)" xlink:href="#P"/><use transform="matrix(0.05,0,0,0.05,64.95,0)" xlink:href="#Y"/><use transform="matrix(0.05,0,0,0.05,69.95,0)" xlink:href="#Z"/><use transform="matrix(0.05,0,0,0.05,73.9,0)" xlink:href="#T"/><use transform="matrix(0.05,0,0,0.05,83.9,0)" xlink:href="#aa"/><use transform="matrix(0.05,0,0,0.05,93.9,0)" xlink:href="#ap"/><use transform="matrix(0.05,0,0,0.05,99.85000000000001,0)" xlink:href="#av"/><use transform="matrix(0.05,0,0,0.05,114.80000000000001,0)" xlink:href="#P"/><use transform="matrix(0.05,0,0,0.05,124.80000000000001,0)" xlink:href="#P"/><use transform="matrix(0.05,0,0,0.05,134.8,0)" xlink:href="#Y"/><use transform="matrix(0.05,0,0,0.05,139.8,0)" xlink:href="#Z"/><use transform="matrix(0.05,0,0,0.05,143.75,0)" xlink:href="#T"/><use transform="matrix(0.05,0,0,0.05,153.75,0)" xlink:href="#aa"/><use transform="matrix(0.05,0,0,0.05,163.75,0)" xlink:href="#aq"/></g><g id="L"><use transform="matrix(0.05,0,0,0.05,0,0)" xlink:href="#au"/><use transform="matrix(0.05,0,0,0.05,9,0)" xlink:href="#ad"/><use transform="matrix(0.05,0,0,0.05,19,0)" xlink:href="#Z"/><use transform="matrix(0.05,0,0,0.05,22.95,0)" xlink:href="#ae"/></g><g id="M"><use transform="matrix(0.05,0,0,0.05,0,0)" xlink:href="#Q"/><use transform="matrix(0.05,0,0,0.05,5.95,0)" xlink:href="#P"/><use transform="matrix(0.05,0,0,0.05,15.949999999999998,0)" xlink:href="#V"/><use transform="matrix(0.05,0,0,0.05,30.899999999999995,0)" xlink:href="#ad"/><use transform="matrix(0.05,0,0,0.05,40.9,0)" xlink:href="#au"/><use transform="matrix(0.05,0,0,0.05,49.9,0)" xlink:href="#P"/><use transform="matrix(0.05,0,0,0.05,59.900000000000006,0)" xlink:href="#av"/><use transform="matrix(0.05,0,0,0.05,74.85,0)" xlink:href="#P"/><use transform="matrix(0.05,0,0,0.05,84.85,0)" xlink:href="#P"/><use transform="matrix(0.05,0,0,0.05,94.85,0)" xlink:href="#Y"/><use transform="matrix(0.05,0,0,0.05,99.85,0)" xlink:href="#Z"/><use transform="matrix(0.05,0,0,0.05,103.80000000000001,0)" xlink:href="#T"/><use transform="matrix(0.05,0,0,0.05,113.80000000000001,0)" xlink:href="#aa"/><use transform="matrix(0.05,0,0,0.05,123.80000000000001,0)" xlink:href="#ap"/><use transform="matrix(0.05,0,0,0.05,129.75,0)" xlink:href="#av"/><use transform="matrix(0.05,0,0,0.05,144.7,0)" xlink:href="#P"/><use transform="matrix(0.05,0,0,0.05,154.7,0)" xlink:href="#P"/><use transform="matrix(0.05,0,0,0.05,164.7,0)" xlink:href="#Y"/><use transform="matrix(0.05,0,0,0.05,169.7,0)" xlink:href="#Z"/><use transform="matrix(0.05,0,0,0.05,173.64999999999998,0)" xlink:href="#T"/><use transform="matrix(0.05,0,0,0.05,183.64999999999998,0)" xlink:href="#aa"/><use transform="matrix(0.05,0,0,0.05,193.64999999999998,0)" xlink:href="#aq"/></g></defs></g></svg>